All credit goes to the original posters:

Subtitles by THORA: www.thoranime.org
Translation by /m/subs

General

Format                           : MPEG-4
Format profile                   : Base Media
Codec ID                         : isom
File size                        : 3.87 GiB
Duration                         : 1h 59mn
Overall bit rate                 : 4 639 Kbps
Encoded date                     : UTC 2010-11-05 17:34:35
Tagged date                      : UTC 2010-11-05 17:34:35

Video
ID                               : 1
Format                           : AVC
Format/Info                      : Advanced Video Codec
Format profile                   : High@L4.1
Format settings, CABAC           : Yes
Format settings, ReFrames        : 4 frames
Codec ID                         : avc1
Codec ID/Info                    : Advanced Video Coding
Duration                         : 1h 59mn
Bit rate mode                    : Variable
Bit rate                         : 4 411 Kbps
Nominal bit rate                 : 4 433 Kbps
Maximum bit rate                 : 31.6 Mbps
Width                            : 1 280 pixels
Height                           : 720 pixels
Display aspect ratio             : 16:9
Frame rate mode                  : Constant
Frame rate                       : 23.976 fps
Resolution                       : 8 bits
Colorimetry                      : 4:2:0
Scan type                        : Progressive
Bits/(Pixel*Frame)               : 0.200
Stream size                      : 3.68 GiB (95%)
Title                            : Imported with GPAC 0.4.6-DEV (build 1)
Writing library                  : x264 core 92 r1510 33d382a
Encoding settings                : cabac=1 / ref=3 / deblock=1:0:0 / analyse=0x3:0x113 / me=umh / subme=7 / psy=1 / psy_rd=1.00:0.00 / mixed_ref=1 / me_range=12 / chroma_me=1 / trellis=2 / 8x8dct=1 / cqm=0 / deadzone=21,11 / fast_pskip=1 / chroma_qp_offset=-2 / threads=6 / sliced_threads=0 / nr=0 / decimate=1 / interlaced=0 / constrained_intra=0 / bframes=3 / b_pyramid=2 / b_adapt=2 / b_bias=0 / direct=3 / wpredb=1 / wpredp=2 / keyint=250 / keyint_min=25 / scenecut=40 / intra_refresh=0 / rc_lookahead=60 / rc=2pass / mbtree=1 / bitrate=4433 / ratetol=1.0 / qcomp=0.50 / qpmin=10 / qpmax=51 / qpstep=4 / cplxblur=20.0 / qblur=0.5 / vbv_maxrate=24000 / vbv_bufsize=24000 / ip_ratio=1.40 / aq=1:1.00 / nal_hrd=none
Encoded date                     : UTC 2010-11-05 17:34:35
Tagged date                      : UTC 2010-11-05 17:36:00

Audio
ID                               : 2
Format                           : AAC
Format/Info                      : Advanced Audio Codec
Format version                   : Version 4
Format profile                   : LC
Format settings, SBR             : No
Codec ID                         : 40
Duration                         : 1h 59mn
Bit rate mode                    : Variable
Bit rate                         : 224 Kbps
Maximum bit rate                 : 232 Kbps
Channel(s)                       : 2 channels
Channel positions                : Front: L R
Sampling rate                    : 48.0 KHz
Stream size                      : 191 MiB (5%)
Encoded date                     : UTC 2010-11-05 17:35:56
Tagged date                      : UTC 2010-11-05 17:36:00

Tested on PS3.